<?xml version="1.0" encoding="utf-8"?>
<!-- Generator: Adobe Illustrator 21.0.0, SVG Export Plug-In . SVG Version: 6.00 Build 0)  -->
<svg version="1.1" id="图层_1" xmlns="http://www.w3.org/2000/svg" xmlns:xlink="http://www.w3.org/1999/xlink" x="0px" y="0px"
	 viewBox="0 0 368.5 521.6" style="enable-background:new 0 0 368.5 521.6;" xml:space="preserve">
<style type="text/css">
	.st0{fill-rule:evenodd;clip-rule:evenodd;fill:url(#SVGID_1_);}
	.st1{fill-rule:evenodd;clip-rule:evenodd;fill:url(#SVGID_2_);}
	.st2{fill-rule:evenodd;clip-rule:evenodd;}
	.st3{font-family:'FZZDHJW--GB1-0';}
	.st4{font-size:22.2302px;}
	.st5{font-size:7.8847px;}
</style>
<g>
	<linearGradient id="SVGID_1_" gradientUnits="userSpaceOnUse" x1="184.9723" y1="199.8264" x2="184.4226" y2="288.9428">
		<stop  offset="0" style="stop-color:#E8380D"/>
		<stop  offset="0.5" style="stop-color:#DAE000"/>
		<stop  offset="0.76" style="stop-color:#00A0E9"/>
		<stop  offset="1" style="stop-color:#005BAC"/>
	</linearGradient>
	<path class="st0" d="M196,270.9c-0.1,0.1-3.7,0.4-3.7,0.5c0,0.2-1.4,0-1.4,0.2c-0.2,0-0.5,0.1-0.7,0.1c-0.1-0.1-0.1-0.1-0.2-0.1
		c-1,0.1-1.7-0.6-2.2,0.1c-0.4,0-1.6-0.4-1.7,0c-0.8-0.2-1.6-0.1-2.6-0.1c-0.8,0.6-2.1-0.4-2.5-0.1c-0.7-0.5-2,0.2-2.7-0.2
		c-0.5,0.2-0.6-0.1-1.2-0.1c-0.5-0.4-0.7-0.4-1.1,0c0-0.1-0.1-0.2-0.1-0.2c-0.9-0.1-2-0.2-2.7-0.5c0,0.1-0.1,0.1-0.1,0.2
		c-0.6,0-1.2-0.2-1.9-0.1c0,0,0-0.1-0.1-0.1c-0.2,0-0.4-0.1-2.5-0.5c0-0.1,0-0.2,0-0.2c-0.7,0-1.6-0.2-2.2-0.4
		c-1.2,0-1.5,0.4-1.9-0.6c-0.8-0.2-2.8-0.2-3.1-0.7c-0.2,0-0.3,0-0.5-0.1c-0.1-0.2-0.1-0.5-0.2-0.7c0.1,0,0.2,0,0.2,0
		c0-0.1,0-0.2,0.1-0.2c-0.7,0-0.7,0-0.9,0.1c0,0.3,0,0.7,0,1c-1.2,0.1-3.5-0.1-4.4-0.7c-0.2,0-0.4,0-0.6,0c0,0.1-0.1,0.2-0.1,0.3
		c0.5,0.3,0.5,0.6,0.7,1.2c-0.2,0-0.4-0.1-0.7-0.1l0,0.2c-0.2,0-0.4-0.1-0.6-0.1c-0.1-0.1-0.2-0.1-0.5-0.1c-0.1-0.2-0.1-0.2-0.5-0.3
		c0-0.1-0.1-0.1-0.1-0.2c-0.1,0-0.3,0-0.4,0.1c0-0.1-0.1-0.2-0.1-0.4c-0.2,0-1.3-0.3-2-0.3c0-0.1,0-0.1,0-0.2
		c-0.2,0-0.5-0.1-0.7-0.1c0,0.1,0,0.2,0,0.4c-1.8-0.3-3.7-0.7-5.5-0.9c-0.4-0.1-0.8-0.1-1.2-0.1l0,0c-0.2,0-0.3,0-0.5,0l0,0
		c-0.3-0.1-0.3-0.1-0.4,0c-0.2-0.1-0.2-0.1-0.6-0.1c0.1,0.1,0.1,0.2,0.2,0.3c0.1,0,0.3,0,0.4,0c0,0,0.1,0.1,0.1,0.1
		c0,0.1,0,0.3,0,0.4c0.9,0.3,0.9,0.3,1.3,0.3c0-0.1-0.1-0.2-0.1-0.3c-0.1,0-0.3-0.1-0.4-0.1c0-0.1,0-0.1,0-0.2
		c0.3,0,0.6,0.1,0.9,0.1c0.4,0.2,0.8,0.4,1.4,0.7c0.2-0.1,0.3-0.1,0.5-0.2c0,0-0.1-0.1-0.1-0.1c0.1,0,0.2,0,0.2,0c0,0.1,0,0.1,0,0.2
		c0.8,0.2,1.6,0.4,2.4,0.7l0.1,0.1l0.1,0c0.2,0.1,0.4,0.2,0.7,0.3c0.1,0,0.1-0.1,0.2-0.1c0.1,0,0.3,0,0.4,0c0.1,0,0.2,0.1,0.3,0.1
		c0,0,0,0.1,0.1,0.1c0.2,0,0.2,0,0.4,0.1c0.1,0,0.1-0.1,0.2-0.1l0,0c0.4,0.1,0.9,0.1,1.3-0.1c0.6,0.2,1.2,0.3,1.8,0.4
		c0,0.1,0,0.2,0,0.4c0.2,0,0.3-0.1,0.5-0.1l0-0.2c0.2,0,0.4,0,0.5,0.1l0,0.1c0.5,0.2,1.3,0.3,1.8,0.7c-0.1,0.1-0.1,0.2-0.2,0.4
		c-1,0.2-1.7,0.2-2.5-0.2c-1.3,0.5-2.8-0.2-3.9-0.5c0,0.2,0,0.2,0.1,0.4c-0.3,0-0.9-0.2-2.2-0.2c0-0.1-0.1-0.2-0.1-0.2
		c-1.2,0.4-3-0.3-4.1-0.4c-0.2-0.4-0.2-0.4-0.6-0.5c-0.2,0.1-0.5,0.2-0.7,0.3c-0.1-0.1-0.2-0.1-0.3-0.2c-0.1-0.1-0.2-0.3-0.2-0.4
		c-0.2-0.1-0.3-0.1-0.5-0.2c-0.4,0-0.6-0.1-1-0.1c0,0.1,0,0.1,0,0.2c0,0.1-0.1,0.2-0.1,0.3c-0.2,0-0.4,0.1-0.5,0.1
		c-0.2-0.3-0.5-0.3-0.8-0.4c-0.1-0.1-0.1-0.2-0.2-0.3c-0.1,0.1-0.1,0.1-0.1,0.4c0.1,0,0.2,0.1,0.2,0.1c0,0.1,0,0.1,0,0.2
		c-1.3,0-1.3,0-1.7-0.1c-0.2-0.5-0.5-0.6-0.9-0.7c0,0-0.1-0.1-0.1-0.1c-0.2,0-0.3,0-0.5-0.1c0,0.2,0,0.2,0.4,0.7c-0.3,0-0.6,0-0.9,0
		c0-0.1-0.1-0.3-0.1-0.4c-0.2,0-0.2,0-0.6-0.3c0,0.2,0,0.3,0,0.5c-0.3,0-0.3,0-1.5-0.2c0-0.2-0.1-0.3-0.1-0.4c-0.2,0-0.4-0.1-1-0.1
		c-0.1,0-0.2-0.1-0.2-0.1c0,0.1-0.1,0.2-0.1,0.3c0.1,0,0.2,0,0.4,0c0,0.1,0.2,0.1,0.5,0.3c-0.1,0.1-0.2,0.1-0.2,0.2
		c-0.8-0.3-1.6-0.2-2.1-0.6c-0.3,0.1-0.3,0.1-0.7,0.1c-0.1,0-0.2,0-0.4,0c-2.1-0.5-2.7-0.4-3.9-0.7c-0.2-0.4-0.4-0.1-0.8-0.1
		c-0.1-0.1-5.3-1.2-5.6-1.1c-0.1-0.1-0.2-0.1-0.4-0.2c-0.1,0-0.3,0-0.4,0c0.1,0.1,0.3,0.3,0.4,0.4c0.1,0,0.2,0,0.4,0
		c0.1,0.1,0.2,0.1,0.2,0.2c-0.1,0.1-0.1,0.1-0.2,0.2c0,0.1,0,0.2,0.1,0.2c0.1,0,0.1,0,0.2,0c0-0.1,0-0.2,0.1-0.4c0.1,0,0.3,0,0.4,0
		c0,0.1,0.1,0.1,0.1,0.1c0,0.1-0.1,0.1-0.1,0.2c0.1,0.1,0.1,0.2,0.2,0.2c0.1,0,0.2-0.1,0.2-0.1c0-0.1-0.1-0.3-0.1-0.4
		c0.5,0.1,1.1,0,1.5,0.4c0.1,0,0.2,0,0.3,0c0,0.1,0.1,0.2,0.1,0.3c0.3,0,0-0.4,0.7-0.1c0.2,0.6,0.9,0.5,1.6,0.6c0-0.1,0-0.1,0.1-0.2
		c0.1,0,0.2,0,0.2,0c0.2,0.2,0.3,0.3,0.4,0.5c0.2-0.1,0.4-0.1,0.6-0.1c0-0.1,0-0.2,0-0.3c0.1,0,0.2,0,0.3,0c0.1,0.2,0.3,0.5,0.4,0.7
		c0.7,0,0.9,0.1,1.6,0.1c0-0.1,0-0.2,0-0.2c0.2,0,0.2,0,0.8,0.2c0.1-0.1,0.2-0.2,0.2-0.3c0,0.1,0,0.1,0.1,0.2c0.1,0,0.2-0.1,0.3-0.1
		c0.1,0,0.2,0,0.2,0c0.5,0.2,0.7,0.1,1,0.7c0.4,0.1,1.5,0.5,1.7-0.1c0.2,0,0.4-0.1,0.6-0.1c0,0.2,0.1,0.4,0.1,0.6
		c0.3,0,0.6-0.1,0.9-0.1c0-0.1,0-0.1,0.1-0.2c0.1,0.1,0.2,0.3,0.3,0.5c0.2-0.1,0.2-0.1,0.4-0.3c0.4,0.3,1.3,0.4,1.9,0.7
		c0.1,0,0.1-0.1,0.2-0.1c0,0,0.1,0.1,0.1,0.2c0.1,0,0.3,0,0.4,0c0-0.1,0-0.2,0-0.3c0.2-0.1,0.2-0.1,0.5-0.1c0.1,0.1,0.2,0.2,0.2,0.4
		c0.1,0,0.1,0,0.2-0.3c0.1,0,0.2,0,0.4,0c0,0.2,0.1,0.3,0.1,0.5c0.5,0,1.2,0.3,1.9,0.3c0-0.1,0-0.1,0-0.2c0.2,0.1,0.4,0.3,0.6,0.4
		c0.1-0.1,0.5-0.1,0.7-0.3c0.4,0.2,1,0.5,1.6,0.5c1.3,0.7,3.1,0.3,4.5,0.9c0.3,0.8,0.3,0.8,0.3,1c-0.1,0-0.1,0-0.2,0.1
		c-0.1-0.1-0.1-0.1-0.2-0.2c0-0.1,0-0.1,0-0.2c-0.1,0-0.2-0.1-0.3-0.1c-0.1,0-0.1,0.1-0.1,0.1c0.1,0.2,0.1,0.2,0.1,0.4
		c0.1,0,0.2,0,0.3,0c0.1,0.1,0.1,0.1,0.5,0.1c0.3,0.1,0.4,0.1,0.5,0.6c-0.2,0-0.2,0-0.4-0.2c-0.1,0-0.1,0.1-0.2,0.1
		c-0.1,0-0.2,0-0.4,0.1c0-0.1,0-0.2,0-0.3c-0.1,0-0.2,0-0.4,0c0.1,0.1,0.1,0.2,0.2,0.3c0,0,0,0.1,0,0.1c-1.4,0.1-2.9-0.2-4-0.3
		c0,0.1,0,0.2,0,0.2c-0.5-0.2-0.8-0.4-1.3-0.4c-0.1,0-0.2,0-0.4,0c-0.3-0.6-0.8-0.4-1.3-0.4c0,0.2-0.1,0.3,0.2,0.5
		c-0.2,0.1-0.5,0-0.7,0.1c-2.1,0-4.1-0.6-6-0.5c-0.3,0-2.5-0.5-2.7-0.4c0,0.1,0,0.1,0,0.2c0.3,0.1,0.4,0,0.6,0.4
		c0.7,0.1,1.3,0,2.1,0c0.4,0.1,0.8,0.2,1.3,0.2c0.1,0.2,0.1,0.4,0.2,0.6c0.4,0,1.1,0.2,1.5,0c0.1,0,0.2,0,0.2,0c0,0.1,0,0.2,0,0.2
		c0.4,0,0.4,0,1.2,0.2c0,0.1,0,0.2,0,0.4c0.1,0.2,0.1,0.2,0.3,0.3c0-0.1,0-0.1,0.1-0.2c0.6,0,0.5,0.4,0.8,0.3
		c0.1,0.4,0.3,0.3,0.8,0.4c-0.1,0.2-0.1,0.2-0.1,0.5c0.2,0,0.4,0.1,0.7,0.1c0.4,0,0.4,0,1,0.2c0-0.1,0.1-0.2,0.1-0.3
		c0.4,0.1,1,0.3,1.5,0.3c0,0,0-0.1,0.1-0.1c0.1,0,0.2,0,0.4,0c0.1,0.1,0.1,0.2,0.2,0.2c0.3,0.4,0.5,0.6,1,0.8
		c0.1-0.1,0.2-0.1,0.2-0.2c0.2,0,0.4,0,0.5,0c0,0.1,0,0.1,0.1,0.2c0.2,0,0.4,0,0.6,0.1c0.1,0,0.2,0,0.3,0c0.3,0.2,0.7,0.7,1.1,0.7
		c1.3,0.7,2.3,0.6,3.9,1.1c1.4-0.3,2.6,0.4,3.9,0.9c0.9-0.2,1.7,0.4,2.6,0.7c0.7-0.3,3,0.5,3.8,0.9c0.5,0.1,0.9,0.1,1.4,0.2
		c0,0.1,3.4,1,3.9,1.1c0,0.1,0.1,0.2,0.1,0.3c0.1,0,0.2,0.1,0.3,0.1c0.1,0.4,0.5,0.3,0.7,0.7c-0.1,0-0.2,0-0.4,0.1
		c0,0.1,0,0.2,0,0.2c0.3,0,0.5,0,0.8,0c0,0,0,0,0.1,0.1c0,0.1,0,0.2,0,0.4c0.1,0,0.3,0,0.5,0c0.1,0,0.1,0,0.2,0c0,0.1,0,0.1,0.5,0.2
		c0-0.1,0-0.2,0-0.2c0,0,0-0.1,0-0.1c0.1,0,0.1,0,0.2,0c0-0.1,0-0.1,0-0.2c0.5,0.1,1,0.3,1.4,0.4c0,0.1,0,0.1,0.1,0.2
		c0.2,0.1,0.5,0.1,0.7,0.2c0,0.1-0.1,0.1-0.1,0.2c-0.8,0-2,0.1-2.7-0.2c-0.1,0.1-0.2,0.1-0.4,0.2c-2.6-0.3-5.3-0.7-7.9-1
		c0,0,0,0.1,0,0.1c0,0-0.1,0-0.1,0c-0.2-0.5-2.1-0.5-2.7-0.8c-0.1,0-0.1,0.1-0.2,0.1c0,0-0.1-0.1-0.1-0.1c-0.4,0-0.9,0-1.3,0.1
		c-0.3-0.1-0.6-0.4-0.9-0.5c0,0.2-0.1,0.3-0.1,0.5c0,0.1,0,0.1,0.1,0.2c0.5,0.1,0.5,0.1,0.8,0.2c0.6,0.3,1.4,0.7-0.1,0.6
		c-0.4,0.1-0.5,0.1-0.7,0.1c0,0,0-0.1-0.1-0.1c0.1,0,0.3,0,0.4,0c0-0.1,0.1-0.3,0.1-0.4c-0.3-0.2-0.3-0.2-0.5-0.2
		c0,0.1,0,0.1,0.1,0.3c-0.5,0-0.5,0-0.9-0.1c0,0.1-0.1,0.1-0.1,0.2c-0.2,0-0.3,0.1-0.5,0.1c0-0.1,0-0.1-0.1-0.2
		c-1,0-2.8-0.1-3.6-0.6c-0.8,0-0.7,0.2-1.4-0.3c-1.5-0.1-0.9-0.5-1.4-1.1c-0.1-0.1-0.2-0.1-0.3-0.2c-1.2-0.2-1.2-0.2-1.4-0.1
		c0.2,0.2,0.5,0.3,0.8,0.3c0,0.2,0.1,0.3,0.1,0.5c0.1,0,0.3,0,0.4-0.1c0,0.1,0,0.2,0,0.3c-0.7,0.4-2-0.1-2.7-0.2
		c0-0.1-0.1-0.1-0.1-0.2c0.1,0,0.2,0,0.4-0.1c-0.1-0.1-0.1-0.1-0.2-0.1c-0.1,0-0.3,0-0.4,0.1c0,0.1,0,0.1-0.4,0.2c0-0.1,0-0.2,0-0.3
		c0.1,0,0.2,0,0.3,0c0,0,0-0.1,0-0.1c0.3-0.1,0.3-0.1,0.5,0c0.4-0.2,0.4-0.1,0.9,0c0-0.1,0-0.3,0-0.4c-0.3-0.1-0.3-0.1-0.4-0.2
		c0.2-0.1,1.3,0.1,1.7,0.1c0-0.1,0-0.1,0-0.2c-0.4-0.1-0.4-0.2-0.6-0.3c-0.2-0.1-1-0.3-1.3-0.4c-0.1,0-0.2,0-0.3,0
		c0-0.1,0-0.2,0-0.3c-0.3,0-0.6-0.1-0.8,0.2c-0.4-0.1-0.3-0.1-0.5-0.4c-0.2,0-0.3,0.1-0.6,0.2c0,0,0,0.1,0,0.1
		c0.1,0.1,0.2,0.1,0.4,0.2c0,0.1-0.1,0.1-0.1,0.2c-0.2,0-0.2,0-0.4-0.2c0,0-0.1,0-0.1,0c-0.2,0.1-0.1,0-1,0.1c0-0.1,0-0.2-0.1-0.3
		c-0.1,0-0.1,0-0.2,0c-0.1,0-0.2,0.1-0.3,0.1c-0.1-0.1-0.9-0.2-1-0.3c-1.1-0.1-1.6-0.1-2.7-0.1c0,0.1,0,0.2,0,0.4
		c-0.4,0-0.4,0-0.8-0.1c0-0.1,0-0.2-0.1-0.3c-0.4-0.1-0.7-0.1-1.1-0.1c-0.3-0.3-0.3-0.4-0.6-0.4c-0.1,0.1-0.1,0.2-0.2,0.4
		c-0.1,0-0.2,0-0.4-0.1c0-0.1-0.1-0.1-0.1-0.2c-1.3-0.4-4.3-0.6-5.7-0.4c-0.5-0.2-0.7-0.3-1.1-0.3c0,0.1-0.1,0.2-0.1,0.3
		c-0.2,0-0.3,0.1-0.5,0.1c0,0.1,0.1,0.1,0.1,0.2c0.5,0,1.1,0.1,1.6,0.1c0.2,0,0.3-0.1,0.5-0.1c0,0,0,0,0.8,0.2
		c0-0.1,0.1-0.1,0.1-0.2c0.4-0.2,0.4-0.2,0.9,0c0.2,0.5,1,0.3,1.6,0.4c0-0.1,0.1-0.1,0.1-0.2c0.2,0.1,0.2,0.1,0.2,0.4
		c0,0,0.1,0,0.2,0c0.5-0.5,1-0.5,1.5,0.2c0.3-0.1,0.7-0.1,0.9,0.3c0.7-0.1,0.8,0.4,1.5,0.4c0.2,0.3,0.4,0.2,0.9,0.4
		c0,0.1,0,0.1,0.1,0.2c0.2,0,0.4,0,0.6,0c0.1-0.1,0.1-0.1,0.2-0.2c0-0.1,0-0.2,0-0.3c-0.1,0-0.3,0-0.4,0c0-0.1,0-0.2,0-0.2
		c0.1,0,0.3,0,0.4,0c0.1,0,0.2,0,0.2,0.1c0.4,1.1,1.2,0.9,2.4,0.9c0,0.1,0,0.1,0,0.2c0.2,0,0.5,0,0.7,0c0-0.1,0-0.1,0-0.2
		c0.2,0,0.3,0,0.5,0c0.1,0.1,0.2,0.3,0.2,0.4c-0.1,0-0.3,0-0.4,0.1c0,0,0,0.1,0,0.2c0.5,0.4,0.8,0.1,1.4,0.7c0.1,0,0.3,0,0.4,0
		c0,0.1,0,0.2,0.1,0.3c0,0,0,0.1,0,0.1c0.1,0,0.2-0.1,0.4-0.1c0-0.1,0.1-0.2,0.1-0.2c0.1,0,0.2,0,0.3,0c0,0.1,0,0.2,0.1,0.3
		c0,0.1,0,0.1,0.4,0c0-0.1,0-0.1-0.1-0.2c0.1,0,0.1,0,0.2-0.1c0,0.1,0,0.1,0,0.2c0.2,0,0.2,0,0.2,0.1c0.6,0.2,4,1.4,4.4,1
		c1.9,0.1,3.8,1.2,5.8,1.4c0.3,0.2,0.8,0.2,1.3,0.2c0.1,0,0.2,0,0.4,0c0.1,0,0.1,0,0.2,0c0.3,0.2,0.5,0.4,0.8,0.5
		c0.1,0.1,0.1,0.2,0.1,0.3c0.2,0,0.9,0,1,0.3c0.2,0,0.4,0,0.5,0.1c0.1,0.1,0.1,0.2,0.2,0.3c0.2,0,0.5,0,0.7,0c1.1,0.5,2,0.5,3.2,0.9
		c0-0.1,0.1-0.2,0.1-0.2c0.5,0,1.1,0.1,1.6,0.1c0,0.1,0,0.1,0.1,0.2c0.1,0,0.2,0,0.2,0c0,0.1,0,0.2,0,0.3c-0.8,0-1.5,0-2.3,0
		c-0.5-0.3-0.5-0.3-0.6-0.2c-0.3,0-0.3,0-0.5,0.2c0.1,0,0.2,0,0.3,0.1c0.3,0.2,0.4,0.2,0.8,0.3c0,0.1,0.1,0.2,0.1,0.2
		c-1.7-0.3-2.8-0.4-4.4-0.7c-0.5-0.8-0.9-0.2-1.6-0.2c-0.3-0.2-10.7-2.4-11.4-2.3c0,0.1,0,0.1,0,0.2c0.2,0.1,0.3,0.3,0.5,0.5
		c0.1,0,0.2,0.1,0.4,0.1c0.3,0,0.6,0,0.9,0c0.1,0.1,0.1,0.2,0.2,0.3c0.2,0,0.3,0,0.5,0c0.9,0.2,2.2,0.1,2.9,0.9
		c0.2,0,0.4-0.1,0.6-0.1c0,0.2,0.1,0.4,0.2,0.6c0.6,0,0-0.8,1.5-0.2c0.4,1.3,1.9,1.1,3.3,1.3c0-0.1,0.1-0.2,0.1-0.3
		c0.2,0,0.3,0,0.5,0.1c0.4,0.5,0.7,0.6,0.7,0.9c0.4-0.1,0.8-0.2,1.2-0.3c0-0.2,0-0.5,0-0.7c0.2,0,0.5,0,0.7,0
		c0.3,0.5,0.6,0.9,0.9,1.4c1.4,0.1,1.8,0.3,3.3,0.2c0-0.2,0-0.3,0-0.5c0.4,0,0.4,0,1,0.2c0,0.1,0,0.3,0,0.4c0.4,0.1,1.6,0.3,1.2,0.6
		c-0.2,0-1.1-0.1-1.4-0.1c-0.3,0-2.3-0.2-0.5,0.1c1.2,0.2,3.1,0.6,4.4,0.7c1.5,0.2,3,0.2,4.4,0.4c0,0.1,0,0.1,0.1,0.2
		c1.4,0.1,2.9,0.2,4.4,0c0,0,0.1,0.1,0.1,0.1c0.9,0,0.7,0.2,1.8,0.2c0,0.2,1,0.1,1,0.3c0.5,0.1,1.5,0.2,2-0.1c0,0.1,0.1,0.2,0.1,0.3
		c0.9,0.2,3.4,0,4.4,0.2c2.4-0.3,4.6-0.2,7-0.5c0.2,0,0.4,0.1,0.6,0.1c0.8,0,1.6-0.1,2.5-0.1c0.2,0,0.3,0,0.5,0
		c1.6,0,8.7-1.2,10.3-1.6c3.2-0.5,4.3-1,5.5-1.4c1.2-0.4,2-0.5,5-1.6c0.1-0.3,0.8-0.6,1.2-0.7c0.2,0,0.4,0,0.6,0
		c0.9-0.6,1.6-0.5,2.6-0.7c0.5-0.7,0.5-0.9,1.4-1.2c0.5-0.4,0.9-0.9,1.4-1.1c0.1,0.1,0.2,0.1,0.3,0.2c0-0.1,0-0.2,0-0.3
		c0.7,0,2.3-0.6,2.5-1.2c0.1,0,0.2,0,0.2,0c0.3-0.8,1.6-0.4,2-1.6c1.5-0.2,1.3-1,1.8-1.1c0-0.1,0-0.2,0.1-0.3c0.5-0.2,1.9-0.8,2-1.4
		c0.1,0,0.2-0.1,0.3-0.1c0-0.2,0-0.5,0.1-0.7c0.1,0,0.2,0,0.4,0c0.5-0.7,0.4-0.7,1.2-0.8c0.4-1.2,0.1-0.7,1.4-0.8
		c-0.2-0.7,0.8-1.3,0.8-2.1c0.5-0.2,0.7-0.4,1.2-0.4c0.2-0.2,0.2-0.2,0.3-0.8c0.1,0,0.3,0,0.4,0c0.1-0.3,0.5-0.5,0.7-1
		c0,0-0.1-0.1-0.1-0.1c0-0.2,0.1-0.4,0.1-0.6c0.3-0.2-0.5-0.4,0.1-0.5c0,0,0.1,0.1,0.1,0.1c0.4-0.1,0.6-0.3,1-0.5c0-0.1,0-0.2,0-0.2
		c0.1-0.1,0.2-0.1,0.2-0.2c0.1-1,0.7-0.9,0.9-1.9c0.6-0.4,0.9-0.6,1.2-1.2c0.2-0.1,0.3,0,0.5,0c0-0.2-0.1-0.5-0.1-0.7
		c0.5-0.3,0.1-0.7,0.4-1.1c0.4,0.1,0.5,0.1,1-0.1c0-0.3-0.1-0.6-0.1-0.8c0.9-0.5,0.7-0.9,0.9-1.9c0.1,0,0.1,0,0.2,0
		c-0.1-0.2-0.1-0.5-0.2-0.7c0.1-0.2,0.5-0.2,0.6-0.3c0-0.2,0.7-0.3,0.5-1.6c0.2-0.4-0.1-1-0.1-1.4c0.2,0,0.4-0.1,0.6-0.1
		c0-0.2,0.1-0.4,0.2-0.6c0.1,0,0.1-0.1,0.2-0.1c0.1-0.6,0.2-1.3,0.9-1.4c0-0.3-0.1-0.5-0.1-0.8c-0.7-0.6-0.2-1.4-0.1-2.2
		c0.6-0.1,0.8-1,0.9-1.5c-1-0.6-0.8-1.3-0.3-2.3c0.7-0.4,0.4-1.7,0.5-2.3c1-0.8-0.1-1.4-0.1-2.2c1-0.3,0.7-2.5,0.5-2.7
		c0.7-0.6,0.6-1.8,0.6-2.4c-0.5-1.1-0.3-1.1-0.3-1.5c0.9-1.5-0.3-3.2-0.2-4.7c-0.2-0.1-0.3-0.1-0.5-0.2c0-0.1,0-0.1,0-0.2
		c-0.1,0-0.1,0-0.2,0c0-0.2,0-0.3,0-0.5c0.4-0.2,0.7-0.8,0.6-1.3c-1.1-0.6-1.6-1.5-1.1-2.7c0-1-0.4-0.8-1.2-0.8c0,0-0.1,0-0.1,0
		c0-0.2,0-0.3,0-0.5c0,0,0.1,0,0.1,0c0.2-0.2,0.4-0.4,0.5-0.6c-0.2-0.5-0.3-0.7-0.3-1.1c-0.6-0.6-0.6-0.7-0.7-1.5
		c-0.6-0.8-0.1-1-0.2-1.8c-0.4-0.2-1.3-0.2-1.6-0.2c0-0.8-0.3-2.2-1.1-2.3c0,0.2,0,0.2-0.1,0.4c-0.6-1-0.8-0.7-0.4-2.1
		c-0.4-0.2-0.5-0.3-0.8-0.6c-0.2,0-0.3,0.1-0.5,0.1c0.1-1.6,0.6-2.5-0.7-3.1c-0.2-0.4-0.4-0.8-0.7-1.1c-0.3,0-0.6,0-0.8,0
		c-0.1-0.2,0-0.6,0-0.9c-0.1,0-0.2,0-0.3-0.1c0-0.1-0.1-0.2-0.1-0.3c-0.2,0-0.2,0-0.6,0.3c-0.2-0.8-0.5-0.8-0.5-1.7
		c0.8-0.2,0-0.7-0.4-0.7c-0.5-1.5-1.1-1.4-2.3-2c0-0.1-0.1-0.2-0.1-0.3c-0.3-0.1-0.6-0.2-0.9-0.3c-0.7-1.3-0.4-1.6-2-2
		c-0.2,0.1-0.4,0.3-0.5,0.4c-0.7-0.4-0.4-0.9-0.9-1.1c-0.3-0.8-1.5-1-2.2-1.2c0-0.1-0.1-0.2-0.1-0.3c0.8-0.4-1.2-1-1.3-1.5
		c-0.4-0.3-1.1-0.4-1.3-0.8c-1.7-0.3-2.1-0.1-3-1.6c-0.3,0-0.7,0-1,0c-0.3-0.5-1.3,0.1-1.4-0.1c-0.4-0.1-0.4-0.1-0.6-0.4
		c0.1-0.1-1.5-0.2-1.4-0.2c0-0.2,0-0.5,0-0.7c-0.9-0.4-1,0.1-1.9,0.1c-0.4-0.5-1.6-0.2-1.9-0.5c-1.1,0-1.3-0.1-1.8-0.9
		c-0.5-0.1-1.5-0.3-1.8-0.1c-0.6,0-0.7-0.1-1.3-0.2c-1.3,1.2-0.9-0.4-2-0.2c-0.5-0.4-0.4-0.3-1-0.3c0,0.4-0.5,0.5-0.8,0.8
		c-0.3-0.1-0.5-0.3-0.8-0.4c-0.1,0.3-0.9,0-0.7,0.4c-0.1,0-0.2,0-0.4,0c0-0.3-0.4-0.5-0.5-0.8c-0.7,0.3-0.8,0.3-1.5,0.2
		c0-0.1,0-0.1,0-0.2c-0.5,0.1-0.9,0.2-1.4,0.4c0,0.1-0.1,0.2-0.1,0.4c-0.6,0.1-1-0.4-1.5-0.4c0,0.2-0.1,0.4-0.1,0.6
		c-1.1,0.1-1.2,0.1-2.3-0.2c-0.5,0.3-0.8,0.5-1.3,0.6c-0.2-0.4-0.4-0.2-0.4-0.6c-0.5-0.1-0.5,0-0.8,0.3c-1.2,0-1.3-0.2-2.2,0.5
		c-0.2,0-0.4-0.1-0.6-0.1c-0.1,0.3-0.4,0.4-0.7,0.5c-0.5,1.4-0.7,0.6-2.1,0.3c-1.1,0.2-2,0.8-2.3,1.9c-0.6,0.1-1.3,0.4-2,0.5
		c-0.1-0.1-0.2-0.2-0.3-0.3c-0.9,0.4-1.1,0.9-1.8,1.3c0,0.1,0,0.1,0,0.2c-0.4,0.1-0.8,0.1-1,0.5c-1.8,0.2-2,0.9-3.5,1.8
		c-1.2,0-1.2,0.1-1.4,1.4c-0.2,0-0.4,0-0.5,0c-0.1,0.9-1.9,0.4-2,1.4c-0.1,0-0.2,0-0.4,0.1c0,0.1-0.1,0.3-0.1,0.4
		c-0.1,0-0.2,0.1-0.2,0.1c-0.1,0.9-0.3,0.9-1.2,1c0,0.1,0,0.1-0.1,0.2c-0.5,0-0.2,0.4-0.6,0.4c0,0.1,0,0.2,0,0.3
		c-0.5-0.1-0.6,0-1,0.1c0,0.2,0,0.4,0,0.5c-0.7,0.7-0.6,0.8-1.6,1.4c0,0.2-0.1,0.4-0.1,0.7c-0.8,0.6-0.8,0-0.7,1.3
		c-1,0.8-1.4,0.8-1.6,2.1c-0.6,0.2,0.1,1.5-0.3,1.1c-0.1,0.1-0.2,0.2-0.2,0.2c0,0-0.1-0.1-0.1-0.1c0,0-0.1,0.1-0.1,0.1
		c-0.4,0-0.1,0.3-0.5,0.3c-0.2,0.6-0.8,0.5-0.3,1c-0.1,0.2-0.1,0.2-0.4,0.4c-0.5,0.9-1.1,1.2-0.8,2.1c-0.1,1.3-1,1.2-1.1,2.5
		c0.4,0.4,0,0.9-0.3,1.4c0,0.4,0.2,0.7,0.2,1.2c-0.5,0.2-0.3,0.7-0.8,0.6c0,0.3,0,0.6-0.1,0.9c-0.2,0.1,0.1,1-0.2,1.2
		c0.2,0.5-0.4,0.8-0.2,1.3c-0.2,0.9,0.7,1.1,0.3,1.6c-0.1,1.3-1.3,1.9,0.2,2c0,0.4,0.2,0.2,0.2,0.6c-0.5,0.3-1,1.4-0.6,2.1
		c1,0.4,0.6,0.8,0.7,1.7c0.1,0,0.1,0.1,0.2,0.1c0.2,0.5-0.6,0.9-0.4,1.4c0.1,0,0.2,0,0.2,0c0.2,0.4,0.6,0.8,0.6,1.4
		c-0.2,0-0.3,0.1-0.5,0.1c0.1,0.5,0.7,0.6,1.1,1c-0.1,0.1-0.1,0.1-0.6,0.2c-0.1,0.5,0.2,0.8,0.1,1.3c0.5,0.2,0.5,0.8,0.5,1.3
		c0.7,0.5,0.6,0.2,1.1,1.1c-1.5-0.4-0.1,1.6,0.6,1.9c0.1,0.5,0.7,0.9,0.6,1.4c0.2,0.8,1.2,0.3,1.3,1.4c0.1,0,0.2,0,0.2,0
		c0.1,0.7,0.9,0.6,1,1.4c0.4,0.2,0.4,0.2,0.6,0.2c0.2,0.9,0.4,0.6,0.6,1.4c0.5,0,1.1,0.4,1.7,0.7c0,0.1,0,0.3,0.1,0.4
		c0.6,0,0.3,0.5,0.8,0.4c0.1,0.2,0.4,0.4,1,0.8c0.6,0.4,1.4,0.9,1.8,0.8c1.7,0.4,1.3,1,2.5,0.9c0.3,1,0.5,0.4,1.8,0.4
		c0.5,0.3,1.4,0.4,1.4,0.9c0.1,0.1,0.8-0.1,0.9,0c0.4-0.1,0.8-0.4,1.3-0.3c0,0.2,0.1,0.4,0.1,0.6c0.2,0.1,3.6-0.1,3.9-0.1
		c0,0.1,0.1,0.2,0.1,0.2c0.6,0.4,2.3-0.1,3.2-0.3c0.1,0,0.1,0,0.2,0c0,0.1,0,0.1,0,0.2c6.9-1.2,13.1-4,15-11.3
		c1.2-4.9-0.1-10.3-4.5-13.5c-6.5-4.7-16.2-2.9-23.3-1.5c-3.4,0.7-2.7-0.6-2.1-2.6c0.6-2.2,1.1-2,3-3.2c2.6-1.5,5.4-3.4,7.9-5.2
		c1.3-0.9,2-1,3.4-1.1c2.2-0.1,4.1-1,5.5-2.6c0.8-0.9,2-2,3.1-2.7c1.7-1,1.1,0.4,0.7,1.7c-0.9,2.6,1.1,2.5,3,1.8
		c2.9-1,5.8-3.7,6.6-5.6c1-2.2,4.7-0.7,3.1,1.4c-1,1.3-0.7,1.9,0.4,1.9c3.8,0.3,7.4-2.3,9.3-4.8c2.6-2.9,6,0.2,3.6,3.4
		c-1.7,2.2-4.9,3.3-8.3,4c-3.6,0.7-7.4,1-10.8,2.1c-2,0.6-1.9,0.8,0.3,1.6c0.9,0.3,1.9,0.7,2.8,1c15.2,6,18.9,18.9,13.5,29
		c-4.1,7.7-11.4,12.5-19.9,15.3C203.3,269.7,199.8,270.6,196,270.9L196,270.9z M116.3,264.9c-0.6-0.1-0.6-0.1-0.8-0.3
		c0.1-0.2,0.6-0.1,0.8,0C116.3,264.7,116.3,264.8,116.3,264.9L116.3,264.9z M153.3,268.3h0.2c0.1,0,0.1,0.1,0.1,0.1
		C153.5,268.4,153.4,268.4,153.3,268.3L153.3,268.3z M115.4,260.8c0.3-0.1,0.3-0.1,0.2-0.3c-0.2,0-0.5,0-0.7,0c0,0.1,0,0.1-0.1,0.1
		C115.1,260.7,115.2,260.7,115.4,260.8L115.4,260.8z M119.5,262.8c-0.2-0.2-0.4-0.2-0.6-0.3c0.2,0,0.3-0.1,0.5-0.1
		C119.4,262.5,119.5,262.7,119.5,262.8C119.5,262.8,119.5,262.8,119.5,262.8L119.5,262.8z M119.8,262.7c0.3,0,0.6,0,0.9,0.1
		c0,0.1,0,0.1-0.1,0.2c-0.3-0.1-0.6-0.1-0.9-0.2C119.8,262.8,119.8,262.8,119.8,262.7L119.8,262.7z M118.3,262.2c0.1,0,0.2,0,0.3,0
		c0,0.1,0,0.2,0,0.3C118.4,262.4,118.3,262.3,118.3,262.2C118.2,262.3,118.2,262.2,118.3,262.2L118.3,262.2z M116.3,261
		c0-0.1,0-0.2,0-0.3c-0.1,0-0.3,0-0.4-0.1C115.9,260.8,115.9,260.8,116.3,261L116.3,261z M118.2,261.3c0,0-0.1,0-0.1,0
		c-0.2-0.3-0.2-0.3-0.1-0.4c0.1,0,0.2,0.1,0.3,0.1c0.1,0.1,0.2,0.2,0.3,0.4C118.5,261.3,118.4,261.3,118.2,261.3L118.2,261.3z
		 M139,266.3c-0.5-0.1-1.1-0.4-1.6-0.5c0-0.1,0-0.2,0-0.4c0.6,0,1.1,0,1.8,0.3c0,0.2,0,0.3,0,0.5C139.2,266.2,139.1,266.2,139,266.3
		L139,266.3z M119.2,261.6c-0.3-0.2-0.3-0.2-0.4-0.5c0.3,0.1,0.3,0.1,0.4,0.3c0.3-0.2,0.3-0.2,0.6-0.1c0,0,0-0.1,0-0.1
		c0.1-0.1,0.1-0.2,0.2-0.2c1,0,0.7,0.6,1.3,0.8l0,0c0.6,0.1,1.2,0,1.8-0.1c0,0,0,0,0.1,0c0.5,0.3,0.7,0.5,1.2,0c0,0,0.1,0,0.1,0
		c0.1,0.1,0.1,0.1,1.6,0.7c0,0.1,0,0.2,0.1,0.3c-0.3,0.1-0.3,0.1-1.1,0.1c-0.2,0-0.5,0-0.7-0.1c0,0-0.1,0.1-0.1,0.1
		c0.3,0.2,0.4,0.2,0.8,0.2c0.9,0.1,1.6,0.5,2.5,0.2c0.1,0.1,0.2,0.1,0.3,0.2c0-0.1,0.1-0.2,0.1-0.4c0.9,0.6,1.3,0.4,2.5,0.4
		c-0.1-0.3-0.7-0.3-0.9-0.4l0,0h0v-0.1c0,0,0-0.1,0-0.1l0,0l0-0.1c0.1,0,0.2,0,0.3,0c0.7-0.1,1,0.3,1.9,0.2c0.1,0.1,0.2,0.3,0.3,0.4
		c0.1,0,0.1,0.1,0.2,0.1l0,0c0.3,0.3,0.7,0.5,1.1,0.8c0,0.1,0,0.3-0.1,0.4c0.1,0,0.3,0.1,0.4,0.1c0,0.1,0.1,0.1,0.1,0.2
		c0.2,0,0.5-0.1,0.7-0.1c0.1-0.8,1.8-0.3,2.3,0.1c0.1,0.3,0.1,0.6,0.2,0.9c0,0.1,0,0.1,0,0.2c-0.1,0-0.2-0.1-0.3-0.1
		c-1.5,0-3.2-0.5-4.6-0.4c0,0.1-0.1,0.2-0.1,0.3c-0.6,0.1-1.9-0.3-2.4-0.5c0-0.2-0.1-0.3-0.1-0.4c-1.3-0.2-2.3-0.8-3.6-0.6
		c0-0.1,0-0.1-0.1-0.2c-0.3,0-0.6,0-0.9,0c0-0.1,0-0.2,0-0.2c-0.4,0-0.7-0.1-1-0.1c0,0.1,0,0.2,0,0.3c-0.1,0-0.3,0.1-0.4,0.1
		c-0.5-1-1.6-0.6-2.4-1.2c0-0.1,0-0.1,0-0.2c0.3,0.1,0.7,0.1,1,0.2c0-0.1,0-0.1,0.1-0.2c-0.6-0.1-0.2-0.8-1.3-0.8
		c-0.1,0.1-0.2,0.2-0.2,0.2c-0.1-0.1-0.2-0.3-0.3-0.5C119.9,261.9,119.2,261.9,119.2,261.6L119.2,261.6z M117.6,261.2
		c-0.8-0.2-0.8-0.2-1.1-0.4c0.2-0.2,0.8-0.1,1.1,0C117.7,261,117.7,261.1,117.6,261.2L117.6,261.2z M117.5,262.2
		c-0.1-0.1-0.1-0.2-0.2-0.3c0.2,0,0.4,0.1,0.6,0.1c0,0.1,0,0.2,0,0.3C117.8,262.3,117.7,262.3,117.5,262.2L117.5,262.2z
		 M137.7,261.7c0,0.1,0,0.1-0.1,0.2c-0.3-0.1-0.6,0-0.7-0.1c0-0.1,0-0.2,0-0.3C137.6,261.6,137.6,261.6,137.7,261.7L137.7,261.7z
		 M133.4,262.6L133.4,262.6c-0.3,0-0.3,0-0.4-0.1c0-0.1,0-0.2-0.1-0.3c-0.1,0-0.2,0-0.3,0c0,0.1-0.1,0.2-0.1,0.2
		c-0.1,0-0.2,0-0.4,0.1c0,0,0-0.1,0-0.1c0-0.1,0-0.2-0.1-0.3c-0.1,0-0.3,0-0.4,0c-0.6-0.5-0.9-0.3-1.4-0.7c0-0.1,0-0.1,0-0.1
		c0.1,0,0.3-0.1,0.4-0.1c-0.1-0.1-0.2-0.3-0.2-0.4c-0.2,0-0.3,0-0.5,0c0,0.1,0,0.1,0,0.2c-0.2,0-0.5,0-0.7,0c0-0.1,0-0.1,0-0.2
		c-1.2,0-1.9,0.3-2.4-0.9c-0.1,0-0.2-0.1-0.2-0.1c-0.1,0-0.3,0-0.4,0c0,0.1,0,0.2,0,0.2c0.1,0,0.3,0,0.4,0c0,0.1,0,0.2,0,0.3
		c-0.1,0-0.1,0.1-0.2,0.2c-0.2,0-0.4,0-0.6,0c0-0.1-0.1-0.1-0.1-0.2c-0.5-0.2-0.7-0.1-0.9-0.4c-0.7,0-0.8-0.5-1.5-0.4
		c-0.2-0.4-0.6-0.4-0.9-0.3c-0.5-0.7-1-0.7-1.5-0.2c-0.1,0-0.1,0-0.2,0c-0.1-0.3-0.1-0.3-0.2-0.4c0,0.1-0.1,0.1-0.1,0.2
		c-0.6-0.1-1.5,0.1-1.6-0.4c-0.5-0.1-0.4-0.1-0.9,0c0,0.1-0.1,0.1-0.1,0.2c-0.7-0.3-0.7-0.3-0.8-0.2c-0.2,0-0.4,0.1-0.5,0.1
		c-0.5,0-1.1-0.1-1.6-0.1c0-0.1-0.1-0.1-0.1-0.2c0.2,0,0.3-0.1,0.5-0.1c0-0.1,0.1-0.2,0.1-0.3c0.4,0,0.6,0.1,1.1,0.3
		c1.3-0.3,4.4,0,5.7,0.4c0,0.1,0.1,0.1,0.1,0.2c0.1,0,0.2,0,0.4,0.1c0.1-0.1,0.1-0.2,0.2-0.4c0.3,0.1,0.3,0.1,0.6,0.4
		c0.4,0,0.7,0.1,1.1,0.1c0,0.1,0,0.2,0.1,0.3c0.4,0.1,0.4,0.1,0.8,0.1c0-0.1,0-0.2,0-0.4c1.1,0,2.2,0.1,3.3,0.2
		c0.1,0.1,0.2,0.2,0.2,0.4c0.1,0,0.2-0.1,0.3-0.1c0.1,0,0.1,0,0.2,0c0,0.1,0,0.2,0.1,0.3c0.9-0.1,0.9-0.1,1-0.2c0,0,0.1,0,0.1,0
		c0.1,0.2,0.1,0.2,0.4,0.2c0-0.1,0-0.1,0.1-0.2c-0.1-0.1-0.2-0.1-0.4-0.2c0,0,0-0.1,0-0.1c0.3-0.1,0.4-0.2,0.6-0.2
		c0.1,0.3,0.1,0.3,0.5,0.4c0.2-0.2,0.5-0.1,0.8-0.1c0,0.1,0,0.2,0,0.3c0.1,0,0.2,0,0.3,0c0.7,0.4,0.8,0.5,1.7,0.7c0,0.1,0,0.1,0,0.2
		c-0.4,0-1.2-0.1-1.5,0c0.1,0.2,0.1,0.2,0.4,0.2c0,0.1,0,0.3,0,0.4c-0.5-0.1-0.5-0.1-0.9,0c-0.2-0.1-0.2-0.1-0.5,0c0,0,0,0.1,0,0.1
		c-0.1,0-0.2,0-0.3,0c0,0.1,0,0.2,0,0.3c0.3-0.1,0.3-0.1,0.4-0.2c0.1,0,0.3-0.1,0.4-0.1c0.2,0,0.2,0,0.2,0.1c-0.1,0-0.2,0-0.4,0.1
		c0,0.1,0,0.1,0.1,0.2c0.7,0.1,2,0.6,2.7,0.2c0-0.1,0-0.2,0-0.3c-0.1,0-0.3,0-0.4,0.1c0-0.2-0.1-0.3-0.1-0.5c-0.4,0-0.6-0.1-0.8-0.3
		c0.2,0,0.2,0,1.4,0.1c0.1,0.1,0.2,0.1,0.3,0.2c0.4,0.5,0.1,0.8,0.7,0.9l0.2,0v0.1c0.1,0,0.3,0,0.5,0.1c0.1,0.1,0.2,0.1,0.2,0.2
		c0.2,0,0.4,0.1,0.7,0.2c0.1,0,0.3,0,0.5-0.1c0.2,0.1,0.4,0.2,0.7,0.3l0-0.1c0.2,0,0.4,0.1,0.5,0.2c0.8,0.1,1.7,0.2,2.3,0.2
		c0,0.1,0,0.1,0.1,0.2c0.2,0,0.3-0.1,0.5-0.1c0-0.1,0.1-0.1,0.1-0.2c0.4,0.1,0.4,0.1,0.9,0.1c-0.1-0.2-0.1-0.2-0.1-0.4
		c0.2,0,0.2,0,0.5,0.2c0,0.1-0.1,0.3-0.1,0.4c-0.1,0-0.3,0-0.4,0c0.2,0.5,0.6,0.5,1.1,0.5c0-0.1,0-0.1,0.1-0.2
		c0.7,0.3,1.2,0.2,1.9,0c0-0.1-0.1-0.1-0.1-0.2c-0.1,0-0.3-0.1-0.4-0.1c0-0.1,0-0.1,0-0.2c0.4,0,0.9,0.1,1.1,0.6
		c0.1-0.1,0.2-0.2,0.3-0.4c0.4,0.1,1.1,0,1.3,0.6c0.2,0,0.3,0,0.5,0.1c0,0.2,0,0.5-0.1,0.8c1.6,0,2.2,0.4,3.8,1
		c0.1,0,0.3-0.1,0.4-0.1c0.1,0.2,0.1,0.2,0.3,0.4c0,0.1,0,0.1,0.1,0.2c0.1,0,0.3,0.1,0.4,0.1l0.1,0c0.1,0.1,0.3,0.2,0.4,0.3
		c-0.1,0-0.1,0-0.2,0.1c0,0,0,0.1,0,0.2c-0.6-0.1-0.6-0.1-0.8-0.2c0,0-0.1,0.1-0.1,0.1c0-0.1,0-0.1-0.1-0.2c-0.6,0-1.8-0.3-2.2-0.2
		c-0.9-0.5-0.5-1-1.9-0.6c-0.1-0.1-0.1-0.1-0.6-0.1c0-0.1-0.1-0.2-0.1-0.3c-0.4-0.1-0.7-0.1-1.1-0.2c0,0.1,0,0.1,0,0.2
		c-0.7,0.2-1.3-0.1-1.8-0.5c-0.5,0-0.8,0-1.1-0.2c-2.2,0.1-4.4-1.3-6.5-1.4c-0.4,0.5-3.8-0.8-4.4-1c0-0.1,0-0.1-0.2-0.1v-0.1
		c0,0,0,0.1-0.1,0.2C133.5,262.6,133.4,262.6,133.4,262.6L133.4,262.6z M133.4,262.4L133.4,262.4L133.4,262.4
		C133.4,262.3,133.4,262.4,133.4,262.4L133.4,262.4z M138.9,262.3c-0.1-0.3-0.2-0.3-0.4-0.4c0.2,0,0.6-0.2,0.8,0.2
		C139.2,262.2,139.1,262.2,138.9,262.3L138.9,262.3z M140.9,266.6l-0.2-0.1l-0.3,0c0-0.1,0-0.1,0-0.2c-0.2-0.1-0.3-0.1-0.4-0.1
		c0-0.1,0-0.2,0-0.2l0.1,0c0,0-0.1-0.1-0.1-0.1c0-0.1,0-0.2,0-0.2c0.2,0.1,0.4,0.1,0.6,0.2c0.1,0,0.1-0.1,0.2-0.1
		c0.3,0.1,0.6,0.3,0.9,0.5c0,0.1,0,0.2,0,0.3C141.4,266.5,141.1,266.5,140.9,266.6L140.9,266.6z M117,265.1c0-0.1,0-0.1,0.1-0.2
		c-0.2-0.1-0.2-0.1-0.4-0.1c0,0.1,0,0.1,0,0.2C116.7,265,116.9,265,117,265.1L117,265.1z M117.7,265.3c0.5,0.1,0.5,0.1,0.7,0
		c0-0.1-0.1-0.1-0.1-0.2c-0.2,0-0.4,0-0.5-0.1c-0.2,0-0.3,0-0.5-0.1C117.2,265.1,117.2,265.1,117.7,265.3L117.7,265.3z M136.4,264.6
		c0,0,0.1-0.1,0.1-0.1c0.5,0.2,0.9,0.3,1.4,0.5C137.2,265,136.9,264.7,136.4,264.6L136.4,264.6z M150.3,264.8
		c-0.2-0.3-0.2-0.3-0.1-0.4c0.2,0.1,0.3,0.1,0.5,0.2C150.5,264.8,150.5,264.8,150.3,264.8L150.3,264.8z M135.6,261.2
		c0-0.1,0-0.2,0-0.2c0.3,0,0.5,0.1,0.8,0.1c0,0,0,0.1,0.1,0.1C136.2,261.2,135.9,261.2,135.6,261.2L135.6,261.2z M156,266.6
		c0.1,0,0.3,0.1,0.5,0.1c0,0.1,0,0.2,0,0.2c-0.1-0.1-0.3-0.1-0.4-0.1C156,266.7,156,266.7,156,266.6L156,266.6z M157,267.2
		L157,267.2c-0.1-0.1-0.1-0.2-0.1-0.2c0.3,0,0.6-0.1,0.8-0.1c-0.2-0.2-0.4-0.4-0.4-0.5c0.1,0,0.1-0.1,0.2-0.1c0.1,0,0.1-0.1,0.2-0.1
		c0,0.1,0.1,0.3,0.1,0.4c0.1,0,0.1,0,0.2,0l0,0.2c0.2,0,0.5-0.1,0.8,0c0,0.1,0,0.2,0,0.2c0.1,0.2,0.1,0.4,0.2,0.6
		c-0.1,0-0.1,0.1-0.2,0.1C158.2,267.3,157.7,266.9,157,267.2L157,267.2z M155.7,266.4c0-0.1,0-0.1,0-0.2c0.1,0,0.2,0,0.2-0.1
		c0,0,0.1,0,0.1,0c0,0.1,0,0.2,0,0.3C156,266.4,155.9,266.4,155.7,266.4L155.7,266.4z M141.9,262.8c-0.2,0-0.4,0-0.5,0
		c0-0.1-0.1-0.1-0.1-0.2c-0.9,0.1-0.7-0.1-1.3-0.5c0.5-0.2,0.4-0.1,1-0.1c0.1,0.2,1.1,0.3,1.6,0.7
		C142.3,262.7,142.1,262.7,141.9,262.8L141.9,262.8z M146.2,266.2c0.2,0,0.4,0.1,0.5,0.1c-0.2,0-0.4,0.1-0.6,0.1
		C146.1,266.3,146.2,266.3,146.2,266.2L146.2,266.2z M128.7,263c-0.1-0.1-0.3-0.3-0.4-0.4c-0.1,0-0.2,0.1-0.3,0.1
		c-0.1-0.1-0.1-0.2-0.1-0.3C128.4,262.4,130,262.7,128.7,263L128.7,263z M128,268.4c0.4,0.1,0.4,0.1,0.4,0.2c-0.1,0-0.2,0-0.4,0
		c-0.7,0.2-0.9,0-1.4-0.2c0-0.1,0-0.2,0-0.2C126.8,268.1,127.9,268.3,128,268.4L128,268.4z M128.8,268.9c-0.3-0.3-0.3-0.3-0.3-0.4
		c0.2,0,0.4,0,0.6,0c0,0.1,0,0.2,0.1,0.3C129.1,268.9,129,268.9,128.8,268.9L128.8,268.9z M153.9,268.1c0-0.1-0.1-0.2-0.1-0.3
		c0.1,0,0.2,0,0.3,0.1c0,0.1,0,0.1,0,0.2C154,268.1,154,268.1,153.9,268.1L153.9,268.1z M127.2,262.7c-0.1-0.1-0.1-0.1-0.5-0.2
		c0-0.1-0.1-0.1-0.1-0.2c0.4,0,0.4,0,0.7,0.1C127.2,262.5,127.2,262.6,127.2,262.7L127.2,262.7z M155.5,265.8c0,0.1,0,0.2,0,0.2
		c-0.2,0.1-0.2,0.1-0.4,0.3c-0.9-0.4-0.8-0.2-1.3-0.8C154,265.5,154,265.5,155.5,265.8L155.5,265.8z M153.6,269.4
		c-0.4-0.2-0.3-0.2-0.4-0.5c0.1,0,0.2,0,0.4,0.1c0.1,0.1,0.1,0.3,0.2,0.4C153.7,269.4,153.7,269.4,153.6,269.4L153.6,269.4z
		 M126.6,270.9c-1.1,0.1-2-0.2-3-0.6c0-0.1,0-0.2,0-0.3c1,0.6,2.1,0.3,3,0.7c0.2,0,0.2,0,0.4,0.1c0.2,0,0.4,0.1,0.5,0.1
		c0.4,0,0.7,0,1.1-0.1c0,0.1,0,0.1,0.1,0.2c0.9,0.1,2.1,0.3,3.1,0.7c-0.3,0.2-2.3,0-2.4,0c0,0.1-0.1,0.1-0.1,0.2
		c-0.3-0.3-0.3-0.3-0.6-0.6c-0.1,0-0.1,0.1-0.2,0.1c-0.4-0.2-0.4-0.2-1-0.4c-0.2,0-0.4-0.1-0.5-0.1
		C126.8,270.9,126.7,270.9,126.6,270.9L126.6,270.9z M135.2,271.2c-0.1-0.1-0.2-0.2-0.3-0.3c0.2-0.1,0.3-0.1,0.5-0.2
		c0,0.1,0,0.1,0,0.2c0.1,0,0.1,0,0.2,0c0,0.1,0,0.1-0.1,0.2C135.5,271.1,135.3,271.2,135.2,271.2L135.2,271.2z M143.1,271.5
		c-1.1-0.2-2.2-0.1-3.3-0.5c-0.8,0.2-1.8,0-2.5-0.3c-0.1,0.1-0.2,0.1-0.3,0.2c-1.1-0.5-2.2-0.7-3.3-1c0-0.1,0-0.1,0-0.2
		c-1.1,0.1-1.9-0.5-3-0.5c0-0.1,0-0.1,0-0.2c-0.2,0-0.4-0.1-0.6-0.1c0-0.1,0.1-0.1,0.1-0.1c2.7,0.2,5.5,0.8,8.2,1.2
		c0,0,0.1,0.1,0.1,0.1c0.6,0,1.1,0.3,1.7,0.2c0.7,0.7,1.8,0.5,2.8,0.9c0,0,0.1-0.1,0.1-0.1c0.3,0.1,0.6,0.2,1,0.4
		C144,271.7,143.3,271.8,143.1,271.5L143.1,271.5z M144.5,271.7c0.5,0,1-0.1,1.5-0.1c0-0.1,0.1-0.3,0.1-0.4c0.3,0,0.6,0.1,1,0.1
		c0,0.1,0,0.3,0,0.4c0.1,0,0.3,0.1,0.4,0.1c0,0,0,0.1,0,0.1c-0.1,0-0.3,0-0.4,0c0,0,0,0.1,0,0.1
		C146.5,272.2,144.9,272.1,144.5,271.7L144.5,271.7z M147.1,272.2c0.1,0,0.1,0,0.2,0c0,0.1,0,0.2,0,0.2c-0.1,0-0.2,0-0.2,0
		C147.1,272.3,147.1,272.3,147.1,272.2L147.1,272.2z M132.7,273.3c0-0.2-0.1-0.3-0.1-0.5c0.1,0,0.2,0,0.3,0c0,0.1,0.1,0.1,0.1,0.2
		C132.9,273.1,132.8,273.2,132.7,273.3L132.7,273.3z M134,273.1c0,0.1,0,0.1,0,0.2c-0.1,0-0.2,0-0.3,0c0-0.1,0-0.2,0-0.2
		C133.8,273.1,133.9,273.1,134,273.1L134,273.1z M134.7,273.3c0.5,0,0.5,0,0.6,0.1c1.2,0,2.2,0.2,3.4,0.5c0,0.1,0,0.2,0,0.3
		c-0.7,0-3.2-0.3-3.4-0.7c-0.1,0-0.3,0-0.4,0C134.8,273.4,134.7,273.3,134.7,273.3L134.7,273.3z M141.5,275.1c-0.1,0-0.2,0-0.2,0
		c0-0.1,0-0.2,0-0.3c0.2,0,0.3,0,0.5,0c0,0.1,0,0.2,0.1,0.3C141.7,275,141.6,275,141.5,275.1L141.5,275.1z M141.9,275
		c0-0.1,0-0.1,0.1-0.1c0.1,0,0.2,0.1,0.3,0.1c0,0.1,0.1,0.1,0.1,0.2C142.1,275.2,142.1,275.2,141.9,275L141.9,275z M146.4,276
		c0,0,0.1-0.1,0.1-0.1c0.4,0.1,0.4,0.1,0.6,0.3c0,0,0,0-0.1,0c-0.3-0.1-0.3-0.1-0.7,0C146.4,276.1,146.4,276.1,146.4,276L146.4,276z
		 M162.9,284.1c0.1-0.1,0.1-0.1,0.2-0.2c0.2,0.1,0.2,0.1,0.2,0.3C163.1,284.1,163,284.1,162.9,284.1L162.9,284.1z M148.9,281.3
		c-0.2,0.1-0.2,0.1-0.7,0C148,280.9,148.6,280.9,148.9,281.3L148.9,281.3z M149.3,281.3c0.1,0,0.1-0.1,0.2-0.1
		c0.1,0.1,0.3,0.1,0.4,0.2c0.2,0,0.5,0.1,0.7,0.1c0.1,0,3.3,0.4,3.3,0.4c0.8,0.1,2.3-0.1,2.6,0.9c-0.1,0.1-0.2,0.1-0.2,0.2
		c-0.4-0.1-0.7-0.2-1.1-0.3c0,0.1-0.1,0.2-0.1,0.2c-0.1,0-0.1,0-0.2,0c0-0.1-0.1-0.2-0.1-0.3c-0.5-0.1-1-0.3-1.4-0.2
		c-0.1,0-0.2,0-0.4,0c-0.9-0.4-1.7-0.4-2.4-0.8c-0.3,0-0.6-0.1-0.8-0.1c-0.1-0.1-0.3-0.1-0.4-0.1
		C149.4,281.4,149.3,281.4,149.3,281.3L149.3,281.3z M165.2,282.1c-0.1,0-0.2,0-0.2,0c0-0.1-0.1-0.2-0.1-0.3c0.1,0,0.2,0.1,0.4,0.1
		C165.2,281.9,165.2,282,165.2,282.1L165.2,282.1z M168.4,283.4c-0.1,0-0.3-0.1-0.4-0.1c-0.1-0.1-0.1-0.3-0.2-0.4
		c0.3-0.1,0.4,0,0.7,0C168.5,283.1,168.5,283.2,168.4,283.4z"/>
	<linearGradient id="SVGID_2_" gradientUnits="userSpaceOnUse" x1="164.1926" y1="262.515" x2="164.1926" y2="153.5727">
		<stop  offset="0" style="stop-color:#009944"/>
		<stop  offset="0.29" style="stop-color:#C4D700"/>
		<stop  offset="0.7" style="stop-color:#00A0E9"/>
		<stop  offset="1" style="stop-color:#005BAC"/>
	</linearGradient>
	<path class="st1" d="M164.5,145.4c-0.1-0.3-0.6-0.7-1-0.8c2.2,2.5,7.8,7.4,8.9,10.1c-3.6-4.2-7.8-8.3-10.8-10.3
		c0.4,0.5,1.1,1.3,1.6,1.9c0.3,0.4,1.5,1.5,1.1,1.9c-0.1-0.4-0.2-0.6-0.6-0.5c-0.6-0.9-1.6-1.6-2.5-2.3c-0.8-0.6-1.4-1-0.5-0.1
		c1.9,2,1.5,2,0.4,1.1c-0.9-0.8-3.1-2.5-4.2-3.2l-0.1,0l-0.1,0c3.4,3.1,7,6.4,9.9,10c0.8,1.1,0.8,1.2-0.1,0.3
		c-3.9-4-8.6-8.5-13.8-11.2l0,0.1l-1.8-0.7l2.4,1.8l0,0.1l-2.8-1.4l0,0.3l0,0.1l-1-0.6l-0.4-0.1l-0.3-0.5l-0.5,0.1l-1.4-0.7
		l-0.2,0.1c-0.2-0.4-3-1.5-3-1.6l-0.1,0.1l0.1,0l0.1,0.4l-0.6-0.2l-0.6-0.3l-0.3,0.1l-0.5-0.2l-1.5-0.2l1.9,0.9
		c0.7,0.4,1.2,0.8,1.7,0.8c-0.1,0.5,0.4,0.2,0.9,0.8l0.3-0.2l0,0.4l0.3,0c0.1,0,0.8,0.6,0.9,0.7c0.3,0.3,0.6,0.4,0.9,0.7
		c0.4,0.3,1.2,1.4,1.8,1.4c0.3,0.7,1.2,0.7,1.2,1.2l0,0.3l0.4,0c0.4,0,0.4,0.2,0.3,0.4l0.1-0.1l0.8,0.7l0.3,0.5
		c5.4,5.9,9,15.1,9.9,23.3c0.1,1,0.1,1.1-0.2,0.3c-0.6-2.1-1.3-4.6-2.1-6.6l-0.3,0.2l-0.2-0.6l0.4,0.2l0-0.4l-0.5-0.1l0-0.1l0.2,0
		l-0.8-1.7l-0.1,0.2l-0.1,0l-0.3-0.4l0.1,0l0.1,0.2l0.1-0.2l-0.1-0.3l-0.2,0l0,0.2l-0.1,0l-0.3-0.6l0.2,0c0-0.5-0.1-0.8-0.5-0.5
		l-0.4-0.7l-0.1,0l1.9,4.4l-0.1,0.4l-0.6-1.4c-0.2-0.1-0.4-0.3-0.4-0.5l0-0.3l-0.3-0.1l0.1,0.7c0,0.3,0.3,0.2,0.3,0.8
		c0.1,0.1,1.1,3.2,1.2,3.9l-0.4,0.2l0-0.6c0-0.2-0.1-0.2-0.3-0.2l0-0.3c0-0.5-0.8-1.6-0.9-2.1l-0.4,0.1l-0.6-1.3l0.1,0.7l-0.3,0
		c-0.1-0.4-0.1-1.1-0.5-1.3l0.1-0.4l-0.2,0l0,0.3l-0.3,0l0.3,1l-0.1,0l-0.8-2.2l-0.1,0.3l-0.1-0.3l0.2,0l-0.1-0.6
		c-0.1,0.1-0.3,0.3-0.3-0.1c0-0.2-0.2-0.6-0.2-0.8l-0.1-0.2l-0.1,0.2l0-0.2l-0.2,0l0.2-0.1c-0.1-0.3-0.2-0.2-0.2-0.3l-0.5-1.4
		l-0.2-0.1c0.1-0.2,0.1,0.1,0.1-0.2l0-0.3c-0.6-0.1-0.1-0.4-0.6-0.7l0,0.2l0.1,0c0,0.2-0.1,0.3-0.1,0.4c1,2.6,2.2,6.3,2.9,9.3
		c0.6,3,0.8,6.3,0.6,8.8c-0.3,4-1.2,8-2.4,11.3c-0.2,0.5-0.3,1-0.6,1.4c0.1,0.2,0.1-0.1,0.1,0.2c0,0.1-0.3,0.2-0.5,0.3l0.1,0
		l-0.5,0.9c0.1,0.2,0.1,0.1,0.1,0.3c0,0.2-0.2,0.3-0.2,0.6l-0.5,0.5l0,0.4c-0.3,0.6-0.5,0.5-0.4,1.2c-0.8,0.3-0.3,0.5-0.8,1.1
		l-0.2,0.6c-0.3,0.4-0.1,0.4-0.2,0.7c-0.1,0.2-0.5,0.2-0.4,0.5l0,0.3l-0.3,0c-0.3,0.2,0.4,1-0.5,0.9c-0.2,0.3-0.1,0.8-0.6,0.8
		l0.1,0.6c-0.5,0-0.6,0.1-0.6,0.5l-0.4,0l-0.1,1.1l-0.6,0.2l-0.1,0.4l0.3,0.1c-0.3,0.4-0.8,0.7-0.6,1.2l-0.3,0.2l-0.2-0.1l-0.8,1.1
		l0.5,0.6l-0.1,0c-0.7-0.3-0.6,0-1,0.6c-0.3,0.5-0.6,0.4-0.6,1.1l-0.3,0.5l0.2,0.5l-1,0.6c0,0.1,0.2,0.2,0.2,0.4
		c0,0.2-0.5,0.3-0.7,0.4l-0.1,0.4c0,0.2-0.1,0.2-0.3,0.2l0.3,0.3l-0.5,0.7l-0.1,0.2c0,0.4-0.1,0.5-0.5,0.9l0.1,0.3
		c-0.2,0.3-0.6,0.3-0.6,0.5c0,0.2,0.1,0.3,0.1,0.5l-0.6,0.6l-0.1,0.7l0.3-0.1l0,0.5c0,0.2-0.5,0.4-0.7,0.4l0,0.3l0.2,0l0.2,0.4
		c-0.4,0-0.4,0.1-0.4,0.5c-0.2-0.1-0.5-0.1-0.5,0.1c0,0.2,0.1,0.4,0.2,0.5l-0.3,0.7c0.1,0.2,0.1-0.1,0.1,0.2c0,0.1-0.3,0.3-0.4,0.5
		l0.2,0.2l0.1,0.6c-0.2,0-0.7,0.2-0.7,0.4c0,0.2,0.2,0.3,0.3,0.5l-0.2,0.3l-0.1,0.2h0.2l0,0.2l-0.6,0.3l0.2,0.3l-0.2,0.4l0.1-0.1
		l0.2,0.5l-0.1,0l-0.2,1.2c-0.1,0.1-0.2,0-0.2,0.2l0,0.2c0,0.3,0.3,0.2,0.3,0.4c0,0.1-0.1,0.2-0.2,0.5l-0.6,0.2v0.2
		c0,0.3-0.2,1.1-0.3,1.3c0.1,0.1,0.2,0.2,0.2,0.2c0,0.3-0.1,0.1-0.1,0.5l0.4,0.1l-0.5,0.6l0.2,0.6l0.4,0.6c0,0.3,0,0.1,0,0.4
		c0,0.1,0,0.1,0.1,0.2c-0.5,0.7-0.4,0.8-0.1,1.4l-0.3,0c0.1,0.9,0.1,0.7-0.4,1.4l0.1,0.2l0.6,0.1l-0.2,0.8l0.3,0.2l-0.1,0.8l0.3,0
		v0.1L137,233l0.1,0.6c0,0,0.4,0.7,0.5,0.8l0.3,0.4l0.2,0.8l-0.3,0.4c0.2,0.3,0.6,0.5,0.6,0.9l0,0.2l0.3-0.2l0.6,0l-0.6,0.6l-0.4,0
		l0,0.5l0.3,0l-0.3,0.1c0.1,0.4,0.2,0.5,0.6,0.5l0.1,0.8c0.5,0.1,0.4,1.2,0.2,1.6l0.1-0.1l0.7,0.4l-0.1,0.1l0.3-0.1l-0.1,0.1
		l0.6,0.5l0.1-0.1c-0.1,0.4-0.6,0.1-0.5,0.5c0,0.1,0.3,0.2,0.4,0.2l0.2,0.7l-0.4,0.2l0.7,0.2c-0.2,0.4,0.1,0.4,0.3,0.6
		c0,0.2-0.1,0.2-0.1,0.5l0,0.4c0,0.3,0.3,0.3,0.6,0.4l0.1-0.2l0.6,0.9l-0.1,0.3l0.1-0.2l0.4,0.3c0.7-0.1,0.2,0.5,0.2,0.5
		c-0.2,0.1-0.4-0.2-0.6,0.4l1.1,0.4l-0.1,0.6c0.4,0,0.2-0.1,0.6-0.1c0.1,0,0.3,0.2,0.6,0.2c0,0.4,0.1,0.7,0.5,0.8l-0.3,0.7l0.4,0.4
		l0.4,0l0-0.1l0.5,0l-0.3,0.7l0.1,0.1l0.7-0.1l-0.2,0.5l0.4,0.5l0.9,0.2l0,0.3l0.3,0l0,0.2c0,0.2,0.2,0.3,0.5,0.3l0.1,0.5
		c0.2,0,0.3-0.1,0.4-0.1l0.5,0.3l0,0.3c0.4,0.1,0.3,0.3,0.7,0.5c0.3,0.2,0.5,0.3,0.2,0.7l0.5,0.2l0.1,0.2l0.8,0.5l0.5,0l0.4,0.5
		l1.2,0.6c0.5,0.7,0.9,0.4,1.4,1c0,0,1.2,0.5,1.2,0.5l0,0.3l0.8,0.1c0.2,0.2,0.1,0.5,0.5,0.5l0.5,0l0.8,0.4
		c-0.1,0.3,0.2,0.4,0.4,0.7c0.6-0.1,0.3,0.1,0.8,0.1c0.9,0,0.5,0,1,0.6l1.2,0.2c0.1,0.1,0.6,0.4,0.9,0.4h0.7l0.6,0.6
		c0.8-0.1,0.9,0.2,1.5,0.2c0.1,0,0.2-0.1,0.3-0.1l0.2,0.4c0.7,0,0.8,0.3,1.4,0.5l0.3-0.2l0-0.1l0.5,0.2l0,0.1l0.9-0.1
		c0,0.6,0.6,0.3,1.2,0.6c0.6,0.3,0.5,0.4,1,0.4c0.3,0,0.3-0.1,0.6-0.1c0.2,0,0.1,0.2,0.4,0.2c0.1,0,0.1-0.1,0.5-0.2l0.1,0.3l1,0.1
		l0-0.1l0.7,0.5l0.9,0l0-0.3l0.5,0.3c0.2-0.1,0.1-0.1,0.4-0.1c0.2,0,1,0.2,1.2,0.3l0.8,0.2c0.2-0.4,0.1-0.2,0.7-0.2l-0.1-0.1l0.7,0
		l0.4,0.3c0.3,0,0.8-0.4,0.9-0.1l0.6,0c0.4,0,0,0.1,0.6,0.2l0-0.3c0.2,0.1,0.6,0.2,0.9,0.2c0,0,0.2-0.1,0.3-0.1l0.4,0.1l0.6-0.3
		l0.2,0.1l0.8-0.1l0.3-0.1l0.4,0.2l0.3-0.2l0.5,0c0.2,0.3,0.2,0.1,0.7,0.1c0.1-0.4,0.9-0.2,1.3-0.1l0.2-0.3l0.2,0.3l-0.1-0.2
		l1.2-0.1l0.6-0.2c-0.1,0-2.2-0.3-2.3-0.3l-0.2,0l-0.6-0.1c-0.5-0.2-1.3,0.1-1.1-0.1c-0.8-0.2-0.9-0.1-1.4-0.2c-0.1,0.1-0.5,0-0.7,0
		c-1.1-0.1-1.2-0.1-1.4-0.2c-0.2,0-0.4,0-0.5-0.1c-0.2,0-0.6-0.1-0.9-0.1l-0.9-0.2l0-0.4l0,0.2c-0.4-0.3-1.4,0-1.8-0.4
		c-0.2,0-0.3,0-0.5,0h0l0.1,0.2c-0.3-0.1-0.8-0.2-1.3-0.3c-0.4-0.1-0.4,0-1.9-0.7l-1.2-0.4c-0.4,0.1-1.2-0.5-1.7-0.7
		c-0.4-0.1-1-0.2-1.2-0.4l0.2,0l-0.1-0.2l-0.1,0l-0.4-0.2c-0.5-0.7,0.2,0.2-2.1-1.3c-0.4-0.3-0.8-0.6-1-0.8
		c-0.3-0.2-0.6-0.4-0.9-0.6c-0.4-0.3-0.2-0.3-0.7-0.6l-0.6-0.4l-0.3-0.4l0.1-0.3c0.1,0-0.4-0.2-0.5-0.4c-0.3-0.5-0.5-0.9-1-1.2
		c-0.3-0.2,0.2-0.2-0.1-0.5c-0.6-0.6,0.3-0.2-0.4-0.4c-0.3-0.6-0.9-0.9-1.5-1.9l-0.1-0.5l-0.3-0.6l-0.3-0.6l-0.9-1.6l0.2-0.2
		l-0.4-0.4l0.3,0l-0.3-0.4l0.1-0.1l-0.3-0.6c-0.1-0.2,0-0.2,0-0.3c-1.2-1-0.7-3-1.4-4.3c0.3-0.4-0.1-1.5-0.2-2.1c0-0.3,0-0.7,0-1
		c-0.1-1,0.1-0.2,0.3-0.9l-0.3-0.1l0.2-0.7c-0.2-0.1-0.2-0.1-0.3-0.2L159,237l0.2-0.3l-0.4-1l0.4-0.6l-0.2-0.2l0.1,0l-0.2-0.7
		l0.3,0.1l0.2-0.1l-0.2-0.2l0.1-0.5c-0.2-0.4-0.3-0.5-0.1-0.7c0.1-0.1,0.4-0.5,0.5-0.5l-0.1-0.2c-0.1-0.3,0,0-0.1-0.2l0.3-0.4
		l-0.3-0.2l-0.1-0.2c0.5-0.2,0.2-0.4,0.3-0.8c0.2,0,0.2,0,0.3,0c0.4-0.1,0.2-0.8,0.7-1.1c-0.1-0.2-0.2-0.5-0.2-0.7
		c0-0.5,0.2-0.3,0.1-0.6l0.4-0.2c-0.2-0.5,0.3-0.4,0.1-0.8l-0.2-0.3l0.2-0.1c0.6-0.2-0.2-0.9,0.8-1.4c0.8-0.7-0.1-0.7,0.7-1.2
		l0.1-0.1l-0.1-0.3c-0.1-0.2,0.3-0.5,0.4-0.7c-0.3-0.3-0.1-0.7,0.3-0.8l0.8-1.6c0-0.1,0.1-0.2,0.1-0.3c0-0.1,0-0.2,0.1-0.3
		c0.6-1.4,0.7-1.3,1.3-2.4c2.4-4.8,5.2-9.3,7.8-13.7C185.3,182.6,186.2,159.7,164.5,145.4L164.5,145.4z M164.4,148l0.1,0l1.3,1.4
		l-0.4-0.1L164.4,148L164.4,148z M153.1,159.1C153,159.3,153.3,159,153.1,159.1L153.1,159.1z M157.4,160.8l0-0.2L157.4,160.8
		L157.4,160.8z M155.1,163.6c0.2,0.2,0.4,0.4,0.1,0.6L155.1,163.6z"/>
	<g>
		<path class="st2" d="M203,310.1v0.2c0,0.4,0.2,0.9,0.6,1.6v0.3c-0.2,0.5-1.2,1-2.9,1.7l-0.2,0.2v0.2l0.3,0.7l-0.2,0.8
			c0.1,0.3,0.4,0.7,1.1,1.2l0.2-0.2h0.2l0.5,0.2c0,0.3-0.5,1-1.5,2.2l0.3,0.3c0,0.6-0.5,1.2-1.5,1.9l-0.3,0.7l0.1,1.6l-2,4.3h-0.3
			c-0.3,0-0.4-0.2-0.4-0.6c-0.2,0-0.3-0.4-0.5-1.2h-0.3v0.2l0.2,0.2l-0.5,2.7c0.3,0.5,0.6,0.8,0.8,0.9h0.2c1.4,0,2.9-2.4,4.4-7.1
			c0-0.5,0.8-0.9,2.5-1.3h0.4c-1.1,0.9-1.6,1.7-1.6,2.6c-0.3,0-0.6,0.3-1.1,0.9v1.9l-0.8,1.2c0.4,1.4,0.9,2.1,1.3,2.1
			c1.9-0.8,3.1-2,3.7-3.4c0.4-1.2,0.8-2,1.2-2.2h0.2v0.5l-0.2,0.3l0.2,0.2v0.2l-0.2,0.2l0.2,0.2l-0.2,0.8c0.3,2,1.3,3,3,3h0.4
			c1.4,0,2.1-0.4,2.1-1.2h0.5l-0.9-3.1h-0.5l0.2,0.2v1c0,0.7-0.4,1.1-1.1,1.1c-1.1,0-1.6-0.5-1.6-1.6v-0.5l0.2-0.8l-0.2-0.7l0.2-0.2
			c-0.3-1.6-0.8-2.4-1.4-2.4c-0.7,0-1.2,1-1.6,3c-0.8,0.9-1.6,1.7-2.4,2.3h-0.3v-0.2c0-0.7,0.6-1.5,1.9-2.3v-0.3l-0.3-0.6v-0.6
			c1.2-1.8,2.5-2.7,3.8-2.7l1.1-0.6v-0.5h-0.9l-0.9,0.2c1.3-1.3,2-2.1,2-2.3v-0.6l-0.5-0.3h-0.5l-1.2,0.2l-0.4-0.3h-0.3
			c-0.6,0.7-1.2,1.1-1.7,1.1h-0.3v-0.2c0.4-0.4,1.6-1.1,3.7-1.9l0.3-0.7v-0.6c0-0.8-0.6-1.3-1.8-1.6
			C207.1,310.8,205.7,310.3,203,310.1L203,310.1z M206,318.5c-0.2,0.6-0.6,0.9-1.1,0.9v-0.4C205,318.6,205.4,318.5,206,318.5
			L206,318.5z M203.6,319.5h0.2v0.2l-0.4,0.4h-0.3L203.6,319.5L203.6,319.5z M211.3,320.6c1.7,0.6,2.5,1.2,2.5,1.8
			c0,0.6-0.5,0.9-1.5,1.1l-1.6-1.2V322L211.3,320.6L211.3,320.6z M222.1,314.1v0.3l0.7-0.2c0.7,0.3,1,0.5,1,0.6l-1.9,1.6
			c-0.6-0.3-0.9-0.8-0.9-1.5h-0.3c-0.4,0-0.5,0.6-0.5,2h-0.2l0.2,0.2l-0.2,1.5c0,1.2,0.4,2,1.2,2.3h0.9c0.8-0.5,1.2-1.1,1.2-1.8
			l-0.5-1.2c0-1,1-1.9,2.9-2.6v0.2l0.2,1.3h-0.3v0.5c1.5,0,2.2-0.4,2.2-1.2c-0.2-0.5-0.5-0.7-1.2-0.7H226V315c0.1-0.3,1.3-1,3.7-2
			l0.2,0.2v0.2c-0.9,3.2-1.7,4.8-2.3,4.8h-0.4c0-0.3-0.4-0.5-1.3-0.7l-0.5,0.2l-1-0.2l-0.2,0.5c0.5,0.7,0.7,1.3,0.7,1.8
			c-0.5,1.4-0.9,4.3-1.2,8.7c0.2,0.4,0.4,0.7,0.9,0.9h0.2V329l-0.2-1.6l0.5-3l-0.2-0.2c0-2.6,0.7-4.1,2-4.5c2.3-2.1,3.9-4.6,4.7-7.5
			V312l-0.3-0.4h-0.2c-1,0-2.9,0.7-5.5,2.2h-0.2l0.2-0.7c0-0.5-0.6-1.3-1.7-2.4h-0.4c-0.3,0-0.5,1-0.8,3.1l-0.4,0.3H222.1
			L222.1,314.1z M229.2,321h0.4c0.7,0,1,0.3,1,1v0.6l-0.9,1.2v0.3c2.5,0.6,3.7,1.2,3.7,1.9c0,0.4-0.2,0.6-0.5,0.6
			c0,0.8-0.6,1.4-1.9,1.8h-0.5c-3.1-0.5-4.6-2.2-4.6-5l0.9,0.2c1.1,0,1.9-0.7,2.6-2L229.2,321L229.2,321z M219.4,324.5
			c0.7-1.7,1.5-2.6,2.4-2.6l0.5,0.3v0.2l-0.2,0.2l0.5,2.4l-0.2,2.3c0,1.3-1,2.3-3,3h-0.3v-0.5l0.3-0.6l0.5,0.3h0.3
			c0.7,0,1.3-1.2,1.9-3.7l-0.5-2.6h-0.2c-0.8,0.8-1.2,1.6-1.2,2.3c-0.6-0.2-0.9-0.3-0.9-0.5V324.5z"/>
		<path class="st2" d="M190.2,324.6c-0.6-0.3-1.2,0.1-1.3,0.8c-0.1,0.7,0.4,1.4,1,1.7c0.6,0.3,1.2-0.1,1.3-0.8
			C191.3,325.6,190.9,324.9,190.2,324.6z"/>
		<g>
			<path class="st2" d="M172.7,315.4c0,0-0.2,0.6,0.9,0.2c0,0-0.8,0.9-2.6,1.2c-0.3,1.4,0.5,1.5,1.5,1.2c1.3-0.5,2.5-1.1,3.8-1.4
				c2-0.5,4.1-0.2,2.6,1.8c-3.4,4.5-12,8.1-16.3,9.8c0.9,0.2,3.8-1.1,5.2-1.6c1-0.4,0.6-0.2,0.6-0.2c-0.3,0.2-0.2,0.2-0.4,0.4
				c-0.8,0.4-2.6,1.1-2.6,1.2c0.3,0.2,4.3-1.5,5.2-1.8c0.9-0.3,0,0.2-0.2,0.3c-0.9,0.4-1.4,0.8-0.7,0.6c1.2-0.3,2.8-1,3.7-1.4
				c0.1-0.1,0.1,0.1-0.7,0.5c-1.2,0.6-3.5,1.6-4.8,2.3c4.2-1,11.9-4.7,15-9.8c2.2-3.7,0.3-6.3-4.7-5.5
				C176.7,313.4,174.9,314.1,172.7,315.4z"/>
			<path class="st2" d="M145.8,316.7c0,0-0.2,1,1.4,0.9c1-0.1,2.3-0.2,1.4,1.6c-0.9,2-4.6,4.7-5.8,5.4c-1,0.6-2.1,1.2-2.9,1.5
				c-0.3,0.1-2.7,1.4-0.8,1.1c0,0-4.2,2.5-0.1,1.8c3.8-0.7,8.1-3.3,11.5-5.5c2.4-1.6,5-3.2,7.3-3.4c0,0-3.4,0-7.1,1.9
				c0,0,2.3-1.5,4.1-2c0,0-4.6,1.5-6.6,2.9c0,0,1.9-1.5,3-3.4c2.3-4.1-0.9-5.6-3.9-4.8C144.8,315.2,143.5,317.8,145.8,316.7z"/>
			<path class="st2" d="M160.4,327.1c0,0-0.4-0.4,0.7-1.7c0,0-1,0.2-2.7,2.7c0,0-0.4-0.8,1.3-3c0,0,2.6-3.3,3.7-5.6
				c1.1-2,0-2.6-1.8-0.4c1.2-1.8,6.6-8.8,5.7-3.1C166.7,319.9,163.2,324.9,160.4,327.1z"/>
			<path class="st2" d="M154.6,321.9c0,0,4-2.2,8.5-2.4c-1.3,0.3-5.5,1.7-7.8,3.2c-1.6,1.1-2,2.7-0.8,2.7c1,0.1,2.2-0.8,2.9-1.6
				c0.7-0.8,0.7-1.4-0.6-1.2c2.3-1.8,3.2-0.2,2,1.8c-1,1.6-2.7,3.1-4.3,3.8c-3.7,1.6-5.4-2.2-1.9-5.1
				C153,322.7,153.7,322.3,154.6,321.9z"/>
			<polygon class="st2" points="178.3,317.2 178.3,317.1 178.3,317.2 			"/>
			<path class="st2" d="M174.2,328.4c0,0,0.2-0.1,1.1,0.1c0.6-0.1-1.4-0.6-2.2-1.7c0.2,0.1,8.9,2.2,6.1-1.1c-3-3.4-10-5.6-13.4-6.5
				c0.7-0.3,3,0.5,4.2,0.8c0.8,0.2,0.5,0.1,0.5,0.1c-0.2-0.1-0.2-0.2-0.3-0.3c-0.6-0.2-2.1-0.7-2.1-0.7c0.2-0.2,3.5,0.8,4.2,1
				c0.7,0.2,0-0.2-0.2-0.2c-0.7-0.2-1.1-0.5-0.6-0.4c0.9,0.2,2.3,0.5,3,0.7c0.1,0,0.1-0.1-0.6-0.4c-1-0.4-2.8-1-3.9-1.4
				c3.4,0.4,9.6,2.7,12.4,6.6c2,2.8,0.7,5.2-3.3,5.1C177.8,330,176.1,329.7,174.2,328.4z"/>
		</g>
	</g>
</g>
<text transform="matrix(1 0 0 1 23.7521 374.6982)" class="st3 st4">第二届石家庄市旅游产业发展大会</text>
<text transform="matrix(1 0 0 1 23.8884 391.9482)" class="st3 st5">The Second Conference of Shijiazhuang Tourism Industry Development</text>
</svg>
